<svg xmlns="http://www.w3.org/2000/svg" xmlns:xlink="http://www.w3.org/1999/xlink" width="467" height="525" viewBox="0 0 467 525">
    <defs>
        <path id="prefix__a" d="M0.039 0.26L141.296 0.26 141.296 180.803 0.039 180.803z"/>
        <path id="prefix__c" d="M0.791 0.26L92.986 0.26 92.986 162.974 0.791 162.974z"/>
        <path id="prefix__e" d="M0 0.222L42.933 0.222 42.933 21.777 0 21.777z"/>
    </defs>
    <g fill="none" fill-rule="evenodd">
        <path fill="#63B0FE" d="M419.28 171.101c-4.164 2.625-14.34-14.843-45.671-33.809-33.588-20.332-55.755-20.372-57.018-30.828-1.368-11.325 18.536-33.442 46.053-31.476 62.857 4.49 64.713 91.019 56.635 96.113M142.236 425.788C79.894 368.696 37.719 255.768 89.999 182.77c47.188-65.885 143.049-59.763 156.52-58.903 101.626 6.49 191.825 87.709 180.946 127.005-9.596 34.666-94.821 25.727-102.058 60.52-8.2 39.424 96.691 72.64 90.362 114.72-5.252 34.906-84.087 56.285-143.648 52.972-21.533-1.197-80.236-7.83-129.885-53.297"/>
        <g transform="translate(324.91 222.814)">
            <mask id="prefix__b" fill="#fff">
                <use xlink:href="#prefix__a"/>
            </mask>
            <path fill="#FEB728" d="M139.937 121.44c-7.677-7.948-45.875 21.162-51.102 14.741-3.101-3.809 9.875-14.62 17.69-35.378 9.306-24.723 11.19-52.503 1.965-56.016-13.496-5.137-45.042 45.914-52.085 42.258-3.429-1.78.85-15.88 6.427-32.21C70.777 31.564 81.362 3.76 76.059.564c-4.944-2.98-23.882 15.36-70.308 77.743-.82 1.102-1.65 2.22-2.487 3.349-1.292 2.1-2.241 4.393-2.768 6.922-6.686 32.146 61.807 60.164 83.898 92.224 13.038-3.39 27.897-10.014 39.818-23.002 11.396-12.414 20.664-31.247 15.725-36.361" mask="url(#prefix__b)"/>
        </g>
        <g transform="translate(373.221 222.814)">
            <mask id="prefix__d" fill="#fff">
                <use xlink:href="#prefix__c"/>
            </mask>
            <path fill="#FECB5E" d="M91.627 121.44c-7.677-7.948-45.875 21.162-51.102 14.741-3.102-3.809 9.875-14.62 17.689-35.378C67.52 76.08 69.404 48.3 60.179 44.787 46.684 39.65 15.14 90.701 8.094 87.045c-3.428-1.78.85-15.88 6.427-32.21C22.467 31.564 33.051 3.76 27.75.564c-2.695-1.624-9.55 3.089-22.745 17.813 9.228-7.799 14.214-9.04 16.463-7.686 5.205 3.136-6.17 30.44-13.973 53.29-5.477 16.039-8.695 29.883-5.328 31.63 6.915 3.592 39.847-44.077 53.099-39.032 9.06 3.449 5.897 22.603-4.912 48.154-8.488 20.06-25.086 32.978-16.342 39.13 11.427 8.04 42.643-22.28 50.18-14.475 4.578 4.74-3.27 21.472-13.572 33.585 1.81-1.605 3.58-3.317 5.283-5.173 11.396-12.414 20.664-31.247 15.725-36.361" mask="url(#prefix__d)"/>
        </g>
        <g transform="translate(0 205.763)">
            <mask id="prefix__f" fill="#fff">
                <use xlink:href="#prefix__e"/>
            </mask>
            <path fill="#FEC1B7" d="M32.674 5.485C28.044 2.33 24.2 4.56 21.467 3.47c-7.265-2.898-8.834-4.45-9.37-2.116-.51 2.22 1.518 4.537 7.534 7.754-2.47.602-4.597 1.02-6.018 1.08-3.136.13-12.929-.551-13.516 1.505-1.108 3.876 7.499 8.246 12.891 9.55 4.107.992 14.945.856 20.745-2.657 1.993-1.206 5.243-1.841 7.831-2.739.349-6.454 1.02-6.278 1.37-12.731-1.399-.11-5.485.998-10.26 2.368" mask="url(#prefix__f)"/>
        </g>
        <path fill="#EDA1A2" d="M35.398 220.638c-1.75.477-3.48 1.013-5.187 1.627-3.568 1.283-8.771 2.647-15.131 2.676-3.677.018-6.97-.417-9.791-1.028 2.477 1.409 5.383 2.534 7.7 3.094 4.106.993 14.944.856 20.744-2.657 1.993-1.206 5.244-1.84 7.831-2.739.057-1.064.125-1.945.197-2.709l-6.363 1.736"/>
        <path fill="#1B2734" d="M149.299 45.76c-4.62 1.913-10.184-.22-13.475-3.17-6.5-5.83-7.831-18.171-.793-23.78 5.22-4.16 13.59-3.458 18.232.792 7.607 6.969 4.357 22.71-3.964 26.158"/>
        <path fill="#FE7691" d="M135.917 83.35c7.95-2.097-.602 35.334-1.137 57.015-1.233 49.944-45.506 74.077-93.514 86.003-6.21 1.542-9.21-16.173-6.903-18.04 9.695-7.847 37.564-27.263 46.311-35.58 18.652-17.736 35.277-84.128 55.243-89.397"/>
        <path fill="#FEC1B7" d="M199.434 430.725l-1.786 27.308-10.843.23.211-29.892 12.418 2.354"/>
        <path fill="#FE7691" d="M174.752 79.292c38.953.946 48.725 23.112 70.758 92.57 3.89 12.262 4.215 23.628-2.99 31.386-14 15.077-52.85 14.675-70.31 5.663-5.41-2.792-10.412-6.255-12.666-11.91l-.032-.08 8.616-11.31c8.906.025 20.912-.905 34.466-4.845 9.513-2.766 7.192-3.791 13.437-7.15-13.641-28.9-27.638-65.424-41.28-94.324"/>
        <path fill="#213243" d="M222.348 250.438c.833-27.256 7.66-48.865-16.738-33.929l-86.889 7.822c-7.363 34.662-9.876 57.26-14.084 102.775-3.282 35.51-6.814 72.921-10.37 108.406 2.623.578 5.02 1.131 8.23 1.473 2.722.29 14.818.42 17.154.444 21.546-76.751 30.068-115.712 45.21-165.959.3-.991 1.75-.887 1.945.13 3.353 17.553 9.966 112.878 16.275 159.712 2.252.668 5.442 1.358 9.302 1.382 4.009.027 7.314-.672 9.615-1.346 3.83-24.788 7.514-49.595 11.055-74.42 5.062-35.481 8.475-79.681 9.295-106.49"/>
        <path fill="#1B2734" d="M192.085 456.462c3.126.294 5.889.21 8.148-.004 17.692 11.78 24.505 16.957 24.845 21.003.229 2.745-13.628 7.027-38.775-8.972-3.113-1.981-4.619-6.378-3.25-9.806l1.447-3.622c2.091.583 4.647 1.126 7.585 1.401M208.857 242.481c2.6-.72 5.14-1.482 7.619-2.28 3.986-1.286 6.79-4.87 7.064-9.049 1.09-16.632.228-25.759-17.93-14.643l-86.888 7.822c-1.596 7.51-2.963 14.452-4.17 21.185 24.444 4.723 57.756 7.08 94.305-3.035"/>
        <path fill="#F35583" d="M135.917 83.35c-2.605.688-5.153 2.424-7.655 4.948-6.44 16.389-14.969 39.661-20.585 55.751-2.335 6.69-4.58 13.313-6.737 19.868-2.664 8.095-7.526 15.283-14.065 20.745-6.88 5.745-14.98 11.753-24.367 17.522-10.087 6.197-19.711 10.919-28.343 14.54 1.063 5.137 3.558 10.524 7.101 9.644 48.008-11.926 92.28-36.06 93.514-86.003.535-21.681 9.087-59.112 1.137-57.014"/>
        <path fill="#FE7691" d="M113.192 222.94c-.614 4.861 3.058 10.02 7.852 11.04 44.71 9.5 96.436.932 104.166-7.441 6.462-7-3.584-27.997-11.069-65.413-3.768-18.846-5.542-31.784-6.543-43.36-1.081-12.509-7.556-24.04-17.95-31.084-.346-.235-.698-.466-1.056-.693-22.963-14.6-45.592-10.94-59.91 2.038-9.505 8.612-11.492 18.485-13.225 35.801-1.964 19.623 3.45 53.88-2.265 99.111"/>
        <path fill="#FEC1B7" d="M169.453 49.993c.49-17.154-4.901-28.917-20.584-27.938-6.25.391-13.142 4.483-15.195 13.724-.98 4.411-2.857 34.042 11.763 35.04-.74 5.186-.922 7.572-1.389 11.605-.685 5.902 2.675 11.06 9.215 11.06 7.025 0 16.055-3.193 15.573-11.21-.887-14.727.432-25.807.617-32.281"/>
        <path fill="#EDA1A2" d="M145.437 70.818c1.574-.094 3.411-.363 5.391-.98 6.223-1.94 10.036-6.125 11.763-8.332-1.778 4.48-4.407 9.937-8.332 15.684-3.149 4.61-6.401 8.34-9.312 11.273-.98-1.961-1.272-4.654-1.172-5.197.49-4.248 1.172-8.2 1.662-12.448M163.224 47.233c-1.532-.019-1.94-7.628-5.804-10.343-3.06-2.15-7.332-2.435-11.248-2.057-3.755.363-6.523 1.606-10.225.77-.784-.178-1.444-.495-2.006-.885 2.33-8.492 8.923-12.287 14.928-12.663 12.462-.779 18.421 6.494 20.099 18.12l-3.001.597c-1.414 2.073-1.427 6.477-2.743 6.461"/>
        <path fill="#3E515F" d="M171.115 57.305c-.358.996-3.511 5.086-5.052-6.966-.34-2.666-.167-6.155-.446-5.617-.726 1.405-1.701 2.737-2.393 2.51-.766-.248.314-5.715-1.599-9.051-4.328-7.556-14.848-8.957-20.364-8.337-7.133.802-14.154-.63-16.233-5.15-2.241-4.865 1.314-15.702 5.292-15.196 7.621.97 8.059-16.084 16.01-6.636 4.08 4.846 9.709-.52 10.267 4.04.507 4.139 6.796 1.272 9.238.908 3.133-.47 8.443.562 7.598 7.504-.506 4.16 4.944 4.694 2.533 9.475-2.188 4.34 2.159 6.095-.891 11.206-2.912 4.877 2.364 5.991-1.22 13.348-2.235 4.585-1.824 5.418-2.74 7.962"/>
        <path fill="#1B2734" d="M170.555 34.629c-1.464-2.348-3.428-1.7-5.6-4.055-2.749-2.978-1.215-5.757-3.476-7.241-2.464-1.618-4.716 1.4-8.593.29-4.345-1.245-4.07-5.766-7.82-6.47-4.115-.77-7.29 4.142-10.041 2.608-.283-.158-.975-.615-1.641-2.51-.596-1.698-.775-3.423-.708-5.06.056-1.378-.953-2.524-2.324-2.69-.012 0-.022-.001-.032-.003-3.978-.506-7.533 10.33-5.293 15.197 2.08 4.518 9.102 5.951 16.234 5.15 5.515-.621 16.037.779 20.365 8.336 1.912 3.336.832 8.802 1.598 9.052.692.226 1.666-1.106 2.393-2.511.279-.538.106 2.95.447 5.617 1.54 12.052 4.693 7.962 5.051 6.966.2-.554.337-1.028.451-1.477.984-3.84 1.011-7.864.177-11.74-.299-1.391-.406-2.618-.416-3.667-.023-2.234.38-3.943-.772-5.792"/>
        <path fill="#FFF" d="M167.983 83.374c-.65 5.394-6.42 8.172-8.19 9.21l7.21 8.928c2.404-1.857 7.197-6.073 9.312-12.585l.046-.141c1.61-5.08-2.02-11.553-2.02-11.553s-4.714-3.543-5.792-4.549c0 1.851-.075 6.619-.566 10.69M144.839 75.408c-1.813 1.49-5.152 4.18-5.152 4.18s-6.36 10.048.667 19.59l6.687-7.77c-.994-1.4-3.447-3.403-2.202-16"/>
        <path fill="#FEC1B7" d="M166.062 53.893c.948-.023 2.603-.218 3.947-1.367 3.286-2.812 2.454-9.393.273-10.356-1.247-.55-3.082.212-4.008 1.226-1.235 1.352-1.582 2.913-2.296 3.608"/>
        <path fill="#F35583" d="M202.454 112.489c9.863 14.738 17.138 29.095 21.689 39.047 7.649 16.725 3.305 22.475-4.607 29.103-3.573 2.994-13.206 11.183-19.685 11.482-16.327.755-44.125-3.702-33.985-7.232 6.209.024 15.523.136 24.14-2.037 11.576-2.92 20.829-7.653 27.43-11.78-.692-5.168-1.692-11.436-3.171-18.496-.552-2.638-2.24-10.473-5.194-20.48-1.685-5.71-3.847-12.339-6.617-19.607M157.992 196.034c1.52 25.192 53.72 31.13 66.421 23.773.19-.11.376-.244.554-.395 1.519-1.28 2.176-3.314 1.88-5.278-.094-.614-.202-1.203-.333-1.872-2.34.561-1.328.236-3.885.668-3.512.594-13.223 2.061-25.961 1.318-6.27-.367-10.309-1.095-11.798-1.38-3.204-.612-6.38-1.239-10.34-2.892-4.22-1.765-6.852-3.662-7.48-4.123-1.623-1.192-3.185-2.287-4.738-4.244-1.462-1.838-2.302-3.625-2.788-4.887l-1.532-.688"/>
        <path fill="#BED7FF" d="M183.524 180.108L202.692 183.138 229.382 167.649 185.892 164.095z"/>
        <path fill="#FFF" d="M177.842 138.31l-54.863-1.383c-2.316-.103-5.86 3.284-5.081 5.469l14.865 33.373c1.201 3.261 4.18 5.535 7.642 5.832l58.222 6.915c1.855.16 6.015-.718 4.518-4.279l-16.896-40.433c-1.338-3.2-4.942-5.34-8.407-5.494"/>
        <path fill="#BED7FF" d="M176.605 140.603l-55.401-1.922c-2.317-.104-4 2.174-3.223 4.359l12.468 35.021c2.38 5.436 4.18 5.535 7.643 5.832l60.12 4.622c1.855.16 3.555-.546 2.501-3.424l-16.239-38.995c-1.338-3.2-4.404-5.34-7.869-5.493"/>
        <path fill="#88B7F0" d="M157.49 159.59c2.28 1.792 3.036 4.634 1.689 6.348-1.347 1.713-4.287 1.648-6.567-.144-2.282-1.793-3.038-4.636-1.691-6.349 1.347-1.713 4.288-1.649 6.568.144"/>
        <path fill="#FFF" d="M201.768 183.664c9.123-5.294 17.707-10.59 26.83-15.884.741-.43 1.676.092 1.696.948.025 1.068-.518 2.07-1.43 2.628-8.515 5.223-18.403 11.274-26.695 16.404-.12.075-.273-.013-.277-.155-.05-1.895-.124-2.88-.124-3.94"/>
        <path fill="#FEC1B7" d="M158.085 197.06c-14.137-1.974-28.428-15.419-18.017-15.61 5.162-.096 15.916 2.742 16.082.667.108-1.35-1.42-2.493-1.688-4.427-.274-2.492.593-4.603 1.688-4.871 2.045-.501-.09 1.633 5.051 7.263 3.88 4.25 4.895 7.37 4.458 9.321-.474 2.118-5.057 8.009-7.574 7.657"/>
        <path fill="#F7AEAE" d="M157.138 193.128c-9.43.534-16.846-5.969-20.638-9.585.021 3.9 10.846 12.018 21.585 13.517 2.517.352 7.1-5.538 7.574-7.657.028-.123.05-.249.065-.38-2.189 2.97-5.957 3.956-8.586 4.105"/>
        <path fill="#EDA1A2" d="M141.165 42.363c-.144 1.359-.404 2.943-.87 4.677-.477 1.773-1.061 3.303-1.632 4.568l2.502 2.284-5.112-1.63c.891-1.277 1.824-2.763 2.72-4.46 1.03-1.955 1.805-3.798 2.392-5.439"/>
        <path fill="#FFF" d="M139.713 57.932c2.107-.388 4.213-.777 6.321-1.164.255 1.7-.863 3.308-2.495 3.66-1.7.366-3.442-.745-3.826-2.496"/>
        <path fill="#C9DDEE" d="M363.277 324.513c-1.846-1.049-8.585 5.473-12.732 12.036-7.21 11.408-10.703 28.646-6.189 30.132 3.843 1.264 7.5-10.843 11.625-19.304 3.108-6.378 9.787-21.447 7.296-22.864"/>
        <path fill="#FFDCDC" d="M358.663 327.944c4.193 3.493 31.254 28.155 39.39 36.57l-4.594 6.904-52.286-35.162 17.49-8.312"/>
        <path fill="#F4BABA" d="M210.16 76.209c-1.658-2.224-3.313-3.649-4.492-4.526-2.803-2.088-9.394-6.592-8.432-8.7.201-.442 1.5.063 4.996 2.196 2.27 1.386 5.49 3.475 9.256 6.372l-1.329 4.658z"/>
        <path fill="#F4BABA" d="M209.454 72.491c-.397-2.788-1.192-4.847-1.826-6.188-1.509-3.193-5.26-10.327-3.328-11.805.404-.309 1.335.748 3.451 4.298 1.375 2.308 3.263 5.693 5.244 10.063l-3.54 3.632"/>
        <path fill="#FFD6D3" d="M263.606 122.294c-3.545 2.654-22.93 14.185-27.62 16.17-3.12-7.223-6.55-15.069-9.308-24.128-2.746-9.017-5.051-17.733-6.138-25.45-.997-7.08-1.52-13.11-2.498-17.073-1.189-4.83-2.37-8.24-3.777-14.941-1.194-5.696-1.1-9.27-1.652-9.282-.454-.01-2.124 1.95-2.124 12.678-.389.193-.955.524-1.307 1.127-.922 1.58.434 12.532 0 16.297-.47 4.068-2.867 8.438 2.648 16.296.23 9.445 6.023 57.425 15.272 62.12 5.93 3.012 44.545-15.998 51.817-19.512-5.635-5.973-9.677-8.327-15.313-14.302"/>
        <path fill="#FFD6D3" d="M212.842 94.166c-1.384-.942-3.777-2.838-5.598-6.006-1.089-1.896-1.653-3.692-1.955-5.117-.229-1.087-.732-2.102-1.443-2.976-2.534-3.11-6.108-7.202-5.597-8.323.287-.63 3.386 2.024 5.798 4.406 1.796 1.776 5.086 3.653 6.594 2.63l2.2 15.386z"/>
        <path fill="#E7EFF7" d="M282.717 185.613c-2.22 10.645-7.674 24.547-9.045 34.635-6.658 48.941-.447 85.523 3.494 93.646 5.032 10.372 15.62 17.739 27.307 26.8 14.17 10.985 27.837 19.467 39.884 25.987 1.255-6.44 3.498-14.607 7.67-23.535 3.572-7.643 7.628-13.85 11.25-18.633l-45.51-38.735 18.127-92.755-53.177-7.41"/>
        <path fill="#F4BABA" d="M263.606 122.294c-1.134.85-3.898 2.612-7.28 4.677-1.456 1.953-1.672 4.423-1.697 7.828v.054c.009 3.417-1.752 6.608-4.687 8.547-6.094 4.028-15.55 9.692-19.385 8.89-3.99-.833-11.673-9.903-18.304-52.23 1.511 16.054 6.904 52.015 14.849 56.049 5.93 3.011 44.545-16 51.817-19.513-5.635-5.973-9.677-8.327-15.313-14.302"/>
        <path fill="#84A1E7" d="M286.717 403.557c.27-1.807 9.54-1.87 23.53-1.964 14.297-.097 26.844-.182 27.16 1.964.32 2.173-11.85 6.969-24.634 7.122-13.588.163-26.382-4.937-26.056-7.122"/>
        <path fill="#E7EFF7" d="M258.986 123.76c4.803-3.898 10.301-7.973 16.525-12.012 7.567-4.91 14.818-8.861 21.416-12.044l-6.225 40.924-9.861 5.112c-2.692-3.793-6.187-8.113-10.662-12.524-3.903-3.848-7.74-6.964-11.193-9.455"/>
        <path fill="#3E515F" d="M290.955 67.632c-3.566-2.953-5.346-5.103-6.312-7.854-1.605-4.57.178-6.374.178-14.088 0-3.732-2.177-8.52-.707-11.31 1.745-3.307 6.252-4.566 10.143-5.09-1.466-3.166-.964-6.729 1.256-9.02 2.129-2.193 5.348-1.734 6.047-1.76 4.516-4.517 8.327-6.812 14.513-6.812 20.556 0 51.875 32.482 54.94 64.405 1.324 13.8.51 39.56-13.52 49.295-11.798 8.19-26.794 2.08-37.324-12.295-9.961-13.6-3.96-29.807-3.342-31.39-13.644-4.86-21.75-10.668-25.872-14.08"/>
        <path fill="#D09792" d="M301.752 386.092c.549 7.212 1.076 14.458 1.58 21.735 1.242 17.952 2.32 35.728 3.243 53.322l8.054-.85c1.631-15.473 3.174-30.952 4.624-46.438 1.184-12.633 2.305-25.273 3.368-37.92l-20.869 10.15"/>
        <path fill="#FFD6D3" d="M312.354 98.317c24.8 3.767 40.86 6.232 44.07 14.086 3.243 7.936-3.185 16.612-10.986 32.68-8.878 18.286-10.011 35.841-9.544 47.94-6.053.302-12.931.263-20.453-.436-13.065-1.215-24.123-4.058-32.724-6.974-1.896-13.281-2.982-24.436-3.636-32.686-1.23-15.512-.962-21.2 0-27.02 2.336-14.144 11.295-30.928 33.273-27.59"/>
        <path fill="#FFF" d="M292.61 182.569c-1.969 23.299-3.564 47.233-4.715 71.779-2.447 52.223-2.64 102.053-1.178 149.209 7.686 1.4 17.275 2.49 28.293 2.26 8.489-.176 16.03-1.1 22.397-2.26-.307-31.97.313-59.625 1.178-81.953 1.596-41.199 7.93-61.8 9.661-70.082 1.26-6.025 3.529-15.513 2.359-28.26-1.414-15.4-12.653-27.612-17.324-35.606l-40.67-5.087"/>
        <path fill="#84A1E7" d="M368.695 127.989c.882 2.378-8.378 8.279-16.658 10.853-2.328.724-9.34 2.905-10.373 1.17-1.176-1.972 5.36-9.052 13.729-11.701 5.247-1.662 12.594-2.236 13.302-.322"/>
        <path fill="#FFF" d="M304.111 125.192c-2.654 1.403-8.451-6.307-15.982-6.495-3.462-.086-6.28 1.23-8.525 2.313-.385 1.484-.696 2.964-.935 4.416-.973 5.889-1.246 11.645 0 27.342.662 8.349 1.76 19.636 3.679 33.077 8.703 2.95 19.893 5.826 33.114 7.056 7.612.709 14.572.747 20.697.441-.473-12.243.673-30.008 9.657-48.512 1.276-2.625 2.514-5.054 3.681-7.318-4.453-3.41-16.393-14.994-26.657-16.79-3.906-.684-8.952-.697-18.729 4.47"/>
        <path fill="#E7EFF7" d="M336.836 148.76c-23.283 21.346-71.064-4.194-37.638-25.398-5.987-4.843-13.649-6.019-19.595-2.351-4.1 16.718-.049 41.374 2.746 64.834 12.892 4.897 37.683 8.8 53.81 7.497-1.094-15.257 2.886-37.833 13.338-55.83-1.148-.879-2.794-2.302-4.779-3.958-.77 4.17-2.722 10.207-7.882 15.207"/>
        <path fill="#E7EFF7" d="M281.813 178.981c-.066 2.031-.108 4.105-.12 6.22-.018 2.949.021 5.819.105 8.607 5.083 2.178 14.254 5.353 26.117 5.361 12.971.01 22.851-3.769 27.979-6.147-.086-2.137-.113-4.385-.066-6.737.059-2.88.227-5.606.466-8.164-5.1 2.427-15.174 6.407-28.455 6.352-11.848-.048-20.986-3.287-26.026-5.492"/>
        <path fill="#E7EFF7" d="M300.119 245.135c.241 1.082 1.392 1.74 2.5 1.43l48.256-13.501c.107-3.02.053-6.282-.27-9.802-1.414-15.4-12.653-27.612-17.324-35.606l-40.67-5.087c-1.56 7.721-3.478 17.21-2.016 25.958.62.789 1.24 1.46 1.802 2.004l7.722 34.604"/>
        <path fill="#FE7691" d="M286.111 165.331l22.005 73.252c.2.664.92 1.05 1.617.864l52.514-14.073c.7-.187 1.109-.885.912-1.555l-21.48-73.023c-.195-.665-.914-1.055-1.609-.873l-53.04 13.844c-.708.184-1.122.889-.919 1.564"/>
        <path fill="#FFF" d="M282.877 164.17l22.005 73.25c.2.665.92 1.051 1.617.865l52.514-14.073c.7-.187 1.11-.885.912-1.555l-21.48-73.023c-.195-.665-.914-1.055-1.609-.873l-53.04 13.844c-.708.184-1.122.889-.919 1.564"/>
        <path fill="#FE91B0" d="M286.111 160.106l22.005 73.25c.2.666.92 1.051 1.617.865l52.514-14.072c.7-.188 1.109-.885.912-1.555l-21.48-73.023c-.195-.665-.914-1.055-1.609-.873l-53.04 13.843c-.708.185-1.122.89-.919 1.565"/>
        <path fill="#FFD6D3" d="M337.998 119.88c-.334-5.773.18-9.666 4.482-12.067.19-.106 3.925-2.116 8.253-.92 5.325 1.473 7.86 6.87 9.339 9.651 11.135 20.96 19.549 46.337 22.575 71.174 1.67 13.706-45.81 15.836-67.276 17.134-1.249.075-4.132.515-7.864.992-9.324 1.19-12.49 1.645-14.28-.199-.543-.56-1.212-1.59-1.241-3.572-.369-.16-3.026-1.368-3.726-4.167-.377-1.51-.01-2.782.208-3.374-1.965-.7-3.269-2.284-3.311-3.968-.052-2.024 1.202-3.454 1.513-3.674 2.874-2.033 7.331-.48 7.82-1.276.495-.804-3.752-1.348-5.402-6.163-.99-2.89-.641-6.238.415-6.549 1.07-.316 2.337 2.574 5.38 5.953 4.056 4.505 11.149 5.266 20.036 14.347 0 0 10.788.328 22.449-1.908 11.66-2.236 25.909-8.007 25.909-8.007s-2.74-7.79-8.532-21.568c-5.793-13.777-16.396-35.744-16.747-41.839"/>
        <path fill="#F4BABA" d="M375.356 192.838c-6.968 2.001-14.664 3.867-23.034 5.394-13.44 2.45-25.707 3.495-36.327 3.79-14.812 3.172-19.172 2.315-20.138.722-.17-.28-.442-.925-1.13-1.804-1.856-2.376-3.535-2.358-3.952-3.79-.455-1.56 1.338-2.242.941-3.791-.45-1.755-2.95-1.664-4.517-3.61-.436-.541-.831-1.285-1.021-2.326-.47.628-1.058 1.743-1.022 3.141.043 1.684 1.346 3.267 3.311 3.968-.217.592-.584 1.865-.206 3.374.7 2.799 3.357 4.007 3.724 4.167.03 1.981.7 3.013 1.242 3.573 1.79 1.843 4.955 1.388 14.28.198 3.731-.477 6.615-.917 7.864-.992 21.467-1.298 68.946-3.427 67.276-17.134-.017-.145-.038-.29-.056-.436-1.524 2.658-4.137 4.665-7.235 5.556M358.909 159.068c-1.124-5.563-2.322-10.979-3.575-16.244 1.282-2.185 2.992-4.675 5.27-7.219 1.984-2.216 4.026-4.055 5.982-5.577-2.042-4.653-4.22-9.163-6.514-13.484-1.479-2.782-20.286 10.375-17.975 16.047 3.698 9.073 9.083 20.651 12.648 29.128 4.642 11.044 7.322 18.236 8.204 20.657.264-4.95-2.132-13.886-4.04-23.308"/>
        <path fill="#FFF" d="M334.799 129.627c3.08-2.984 7.795-6.866 14.34-10.093 4.806-2.37 9.598-4.05 13.15-4.857 1.29 1.788 2.696 4.03 3.966 6.729 1.133 2.408 1.905 4.649 2.44 6.583-3.341.704-7.51 2.081-11.624 3.686-6.488 2.53-11.618 5.63-15.407 8.338l-6.865-10.386"/>
        <path fill="#1B2734" d="M269.162 110.39c-9.13 21.224 13.827 37.874 14.296 45.136.381 5.896-2.741 10.908-5.555 14.306 2.446-1.367 5.972-3.721 8.703-7.47 6.568-9.014 3.3-18.902 2.964-26.231-.403-8.756 3.018-21.602 21.511-38.24 5.25-2.144 10.165-30.658-10.14-29.503-.888.05 1.888 11.96-6.382 18.74-9.691 7.946-21.555 14.331-25.397 23.262"/>
        <path fill="#213243" d="M394.83 359.695c-.751-.078-.64.957-1.511 4.946-.788 3.61-6.5 3.13-5.81 6.16 3.73 15.377-.93 42.3 1.376 43.648 3.74 2.187 10.751-19.228 13.071-29.651 1.472-6.613 3.5-12.93 3.97-17.571.145-1.446-.657-2.824-2.024-3.45-4.282-1.965-8.112-3.981-9.071-4.082M316.846 453.879c-.44-.591-1.17.178-4.855 2.212-3.333 1.838-6.765-2.566-8.661-.057-9.48 12.91-27.814 24.705-27.328 27.25.79 4.133 16.402-2.311 26.059-7.592 6.124-3.35 12.39-6.107 16.312-8.862 1.222-.857 1.76-2.35 1.337-3.745-1.321-4.371-2.303-8.454-2.864-9.206"/>
        <path fill="#FFD6D3" d="M309.117 101.19c1.242-2.939 2.388-6.38 3.136-10.264 1.404-7.309.907-13.656 0-18.435 6.097 0 11.267-6.37 17.364-6.37.049 6.453.977 19.343.927 25.928-.05 6.51-.15 12.955-.295 19.335l-21.132-10.193"/>
        <path fill="#F4BABA" d="M329.617 66.12c-6.098 0-11.268 6.37-17.364 6.37.626 3.297 1.056 7.341.802 11.932.98.273 1.971.747 2.789 1.547 1.281 1.252.963 17.881 3.155 20.546 4.693 2.264 17.834-9.075 22.527-6.811.147-6.38-11.032-1.145-10.982-7.654.05-6.585-.878-19.477-.927-25.93"/>
        <path fill="#FFD6D3" d="M326.33 69.746c-3.26 4.62-7.137 7.296-8.862 8.38-3.992 2.51-10.274 6.58-14.744 3.905-5.37-3.216-10.883-11.797-10.656-19.13.006-.199.02-.394.037-.585.265-2.833.237-5.68.02-8.516-.15-1.955-.077-4.237.48-6.714.351-1.558 2.386-10.593 10.584-14.752 8.65-4.388 20.26-1.371 26.094 5.31 9.025 10.337 1.289 26.087-2.954 32.102"/>
        <path fill="#F4BABA" d="M329.283 37.644c-5.833-6.681-17.444-9.698-26.093-5.31-8.199 4.16-10.235 13.194-10.585 14.752-.027.119-.047.235-.071.354 1.164-2.383 3.017-4.755 5.968-6.125.974-.454 5.423-2.52 9.358-.345.277.153 3.89 2.229 4.078 6.212.12 2.549-1.229 4.385-1.679 4.947.464-.262.948-.566 1.44-.92 1.667-1.204 2.82-2.555 3.599-3.682 2.01 1.088 4.89 2.548 7.719 6.499 1.467 2.049 4.348 8.425 5.652 11.93 4.03-7.37 8.123-19.712.614-28.312"/>
        <path fill="#3E515F" d="M305.531 34.974c9.143 1.767 14.032 8.698 15.472 10.738 5.338 7.57 5.159 15.581 5.01 22.184-.158 7.046-1.677 13.412-4.715 26.14-2.28 9.552-3.646 13.45-1.474 15.26 1.723 1.437 4.952 2.088 16.651-2.12 6.853-2.463 6.479-1.856 11.365-1.596 13.69.729 15.937-47.329-6.528-68.336-3.347-3.13-11.338-10.604-23.525-10.852-12.389-.252-21.017 7.126-23.228 9.138 2.24-.644 6.247-1.469 10.972-.556"/>
        <path fill="#3E515F" d="M295.353 37.682c.158.327 2.974-1.645 6.966-1.4 4.52.281 10.222 3.386 11.638 8.787.922 3.519-.353 6.562-.99 7.835.751-.701 3.923-3.818 3.837-8.31-.112-5.825-5.985-11.852-11.852-12.184-5.68-.323-9.807 4.844-9.6 5.272"/>
        <path fill="#FFD6D3" d="M323.148 58.583c1.345-1.458 4.718-4.85 6.812-4.02 2.55 1.013 3.465 8.396-.523 11.558-2.372 1.879-5.527 1.514-6.42 1.382l.13-8.92"/>
        <path fill="#FFF" d="M299.024 68.887l7.061.225c-.005 1.938-1.445 3.485-3.075 3.673-1.953.227-4.063-1.51-3.986-3.898"/>
        <path fill="#F4BABA" d="M301.919 57.2c-.172 1.046-.447 2.26-.894 3.584-.457 1.353-.991 2.513-1.504 3.47l1.925 1.866-4.058-1.462c.772-.953 1.586-2.066 2.378-3.344.91-1.472 1.612-2.869 2.153-4.114"/>
        <path fill="#16DC8B" d="M140.186 496.228C35.914 438.688 17.129 307.299 37.149 297.848c19.621-9.264 85.908 68.562 111.623 77.663 9.54 3.377-31.286-84.573 11.448-71.754 56.289 16.883 79.498 104.861 104.945 119.872 11.447 6.754 8.23-35.116 26.713-41.364 21.757-7.355 89.822 50.515 74.414 97.924-13.89 42.74-137.38 65-226.106 16.039"/>
        <path fill="#6EFEB9" d="M37.149 318.107c19.621-9.263 85.908 68.563 111.623 77.665 3.303 1.168.568-8.614-2.646-21.37-27.348-12.983-89.997-85.516-108.977-76.555-5.775 2.727-8.31 15.611-6.508 33.931.988-7.261 3.22-12.118 6.508-13.67M160.22 324.017C216.51 340.9 239.72 428.879 265.165 443.889c11.449 6.754 8.23-35.117 26.714-41.364 18.037-6.097 67.895 32.631 75.642 73.063 9.85-46.46-54.584-100.44-75.642-93.323-18.483 6.247-15.265 48.118-26.714 41.364-25.445-15.01-48.655-102.988-104.943-119.872-19.78-5.933-21.655 9.721-18.912 27.914 2.04-7.304 7.489-11.08 18.912-7.654"/>
    </g>
</svg>
