<svg xmlns="http://www.w3.org/2000/svg" viewBox="0 0 293.98 250"><defs><style>.cls-1{fill:#6cfbb6;}.cls-2{fill:#1dd988;}.cls-3{fill:#65adfb;}.cls-4{fill:#449dfb;}.cls-5{fill:#002a4c;opacity:0.25;}.cls-6{fill:#88caf0;}.cls-7{fill:#d9f5fa;}.cls-8{fill:#ddf9ff;}.cls-16,.cls-9{fill:#fff;}.cls-9{opacity:0.5;}.cls-10{fill:#55d6a7;}.cls-11{fill:#fac85e;}.cls-12{fill:#ff7592;}.cls-13{fill:#fb8ead;}.cls-14{fill:#ce9086;}.cls-15{fill:#b07f79;}.cls-17{fill:#e1e5f2;}.cls-18{fill:#1b2733;}.cls-19{fill:#0f1924;}.cls-20{fill:#fc9393;}.cls-21{fill:#ffa9a4;}.cls-22{fill:#fb758e;}.cls-23{fill:#e76284;}.cls-24{fill:#fbb429;}</style></defs><title>Asset 18</title><g id="Layer_2" data-name="Layer 2"><g id="Layer_1-2" data-name="Layer 1"><path class="cls-1" d="M226.85,179c23.77-50.8,41.62-54.79,45.14-51.68,2.3,2-.28,9.41,2.59,10.73,3.49,1.6,13.38-7.43,14.78-1.24,2,8.66-8.62,23.14-6.54,29.22,1.17,3.4,6.78-.71,9.45,1.78,4.14,3.85,0,16.09-4.29,22.72-12.51,19.36-43.9,18.37-50,18.08C230.52,194.62,234.29,193,226.85,179Z"/><path class="cls-2" d="M290.15,170.81c-2.53-2.35-9.94.72-11-2.51-2-5.77,7.4-22.18,7.82-28.22s-12.33,3.2-15.63,1.69c-2.73-1.26-.33-10-2.28-12.14-.64-.71-3-1-6.59.31a20.11,20.11,0,0,0-6.85,4.34C247.88,141.6,238,155.14,226.85,179c7.44,14,3.67,15.61,11.11,29.61,4.45.22,22.25.79,36.45-6.35a31.36,31.36,0,0,0,16.9-22.89C291.93,175.58,291.75,172.3,290.15,170.81Z"/><circle class="cls-3" cx="217.73" cy="39.82" r="22.84"/><path class="cls-2" d="M251.93,26.75c-2.08-1.81-8.58,4.62-10.56,2.93S253,10.52,251.05,8.57c-1.76-1.76-10,5.29-17,13.48-7.44,8.65-14,18.45-15.83,17.3s3.1-9.52,1.17-10.85c-2.12-1.46-12,5.7-22.82,20.43a23.61,23.61,0,0,0,21.5,13.88A23.11,23.11,0,0,0,232,58.28a56.39,56.39,0,0,0,10.59-10.13C249,40,254.39,28.89,251.93,26.75Z"/><path class="cls-1" d="M248.2,32.17c-1.46-1.6-10.08,4.34-11.92,2.34-2.51-2.74,15.23-25.74,10.58-24.35a5.94,5.94,0,0,0-1.94,1.1A88.3,88.3,0,0,0,234,22.05c-7.44,8.65-14,18.45-15.83,17.3s3.1-9.52,1.17-10.85c-2.12-1.46-12,5.7-22.82,20.43a23.61,23.61,0,0,0,21.5,13.88A23.11,23.11,0,0,0,232,58.28l0,0C238.45,52.72,250,34.14,248.2,32.17Z"/><path class="cls-3" d="M174.48,2.87c-9.73-5.24-24-3-43,4.4-25.57,10-42.26,19.49-50.18,15.55S74.29,13,67.77,10.9C52,5.78,29.4,26.09,15.3,56.53-6,102.54-5,187.08,18.05,216.16c50.77,64,259.77,21.6,253.74-8.39-2.2-10.94-20.72-16.13-31.09-37.8-16.21-33.89,24.71-76.73,11.89-93.26-9.65-12.45-39.61,1.5-58.14-16.16C178.66,45.5,193.89,13.31,174.48,2.87Z"/><path class="cls-4" d="M18.05,216.16c37.52,47.31,161.47,36.49,221.17,15.52a7.23,7.23,0,0,0,.13-13.58l-.2-.07c-12.14-4.43-18.17,2.19-26.32-2.14-16-8.48-13.5-26.41-25.88-31.51-18-7.43-37.95,24.4-54.28,16.56-11.58-5.56-8.12-24.75-19.11-28.45C100.2,168,86.35,193.4,78.35,189.75c-14.14-6.47,16.48-91.47-5.19-105.06-10-6.3-24,7.28-33.51-.94-11.41-9.86,0-38.32-7-40.43-2.27-.68-5.08,0-8.09,1.75a20.92,20.92,0,0,0-8,8.88q-.63,1.27-1.23,2.58C-6,102.54-5,187.08,18.05,216.16Z"/><circle class="cls-3" cx="85.82" cy="12.92" r="7.72"/><path class="cls-5" d="M227.57,169.54,64.15,175.75a7.61,7.61,0,0,1-7.9-7.85l4.1-123.78a5.87,5.87,0,0,1,6.2-5.67L222.61,47.1a5,5,0,0,1,4.69,4.74l5,112.61A4.89,4.89,0,0,1,227.57,169.54Z"/><path class="cls-6" d="M236.83,160.93,73.41,167.15a7.62,7.62,0,0,1-7.9-7.86l4.1-123.78a5.88,5.88,0,0,1,6.2-5.67l156.06,8.65a5,5,0,0,1,4.69,4.75l5,112.61A4.87,4.87,0,0,1,236.83,160.93Z"/><polygon class="cls-7" points="236.63 150.84 70.73 154.64 74.77 34.26 231.57 42.6 236.63 150.84"/><path class="cls-8" d="M70.73,154.64l165.9-3.8h0a3.73,3.73,0,0,1-3.62,3.91L75.66,159.54a4.79,4.79,0,0,1-4.93-4.9Z"/><polygon class="cls-9" points="134.99 85.05 78.86 83.58 80.07 42.54 135.85 45.52 134.99 85.05"/><polygon class="cls-9" points="133.5 111.61 102.28 112.02 102.94 89.41 134 89.89 133.5 111.61"/><polygon class="cls-9" points="228.38 132.57 139.94 133.11 140.7 68.32 226.4 72.9 228.38 132.57"/><polygon class="cls-10" points="141.56 133.1 150.63 123.69 173.31 120.42 179.73 107.44 207.57 103.66 221.94 84.76 221.94 87.16 223.95 87.16 223.7 79.83 217.02 82.12 217.48 84.18 219.57 83.51 206.1 101.58 178.53 105.41 171.96 118.82 149.59 122.03 139.94 133.11 141.56 133.1"/><polygon class="cls-11" points="194.31 95.35 210.67 83.43 210.08 85.39 211.73 85.88 213.31 79.83 207.3 80.07 207.17 81.86 209.04 81.82 193.61 93.28 175.28 90.87 157.75 97.53 148.87 96.76 140.28 104.52 140.25 106.47 149.18 98.25 158.1 99.25 175.36 92.65 194.31 95.35"/><polygon class="cls-12" points="140.43 91.5 160.04 83.07 185.98 87.28 199.11 82.61 198.13 84.6 199.66 85.26 202.39 79.83 196.54 79.33 196.54 80.88 198.13 80.99 185.72 85.67 159.92 81.57 140.44 89.97 140.43 91.5"/><path class="cls-2" d="M115.72,51.89,106.6,64.28,119,73.4A15.38,15.38,0,0,0,115.72,51.89Z"/><path class="cls-11" d="M96.62,77.82a15.39,15.39,0,0,0,21.52-3.27l-12.39-9.12Z"/><path class="cls-13" d="M115.08,50.34a15.33,15.33,0,0,0-11.43-2.82L106,62.73Z"/><path class="cls-3" d="M102.46,49.14a15.38,15.38,0,0,0-6.82,27.6l9.12-12.39h0Z"/><path class="cls-14" d="M63.63,191.21c-.07,1.23-.12,2.73-.17,4.18a22.14,22.14,0,0,1-.52,4c-1,4.64,1.33,11.49,4.43,12.48,1.41.45,1.88-5.63,1.88-5.63s.51.53.86.34c.6-.31,1.17-1.7,1.24-4a10.54,10.54,0,0,0-1.17-4.42c-.73-1.11-.3-4.1-.48-6C66.78,191.87,66.55,191.43,63.63,191.21Z"/><path class="cls-15" d="M68.52,202.25a4,4,0,0,0-3.52-4l-.54-.08c-.44-.06-.86-.15-1.25-.24a21.62,21.62,0,0,0,.25-2.54c0-1.45.1-2.95.17-4.18,2.92.22,3.15.66,6.07.88.18,1.94-.25,4.93.48,6a10.54,10.54,0,0,1,1.17,4.42c-.07,2.3-.64,3.69-1.24,4-.35.19-.86-.34-.86-.34s-.48,6.18-1.91,5.62h0a44.75,44.75,0,0,0,1.16-8.62C68.51,202.88,68.52,202.56,68.52,202.25Z"/><path class="cls-14" d="M138.08,155.08a68.24,68.24,0,0,1,6.6-6.49c1.15-1.13,4.71-10.43,3.24-11.15-.77-.38-1.92.94-9.08,8.14-2.51,2.53-4.56,4.57-5.85,5.85Z"/><path class="cls-15" d="M143.57,147.42c-.24.39-1.63-3.61-2.06-2.09s-1,1.09-2.31,2.13c0,0,0,0-.07,0a1.14,1.14,0,0,1-.29-1.83h0c3.45-3.47,5.53-5.55,6.79-6.78,1.73-1.69,1,.25.84.83a20.6,20.6,0,0,1-.9,2.63C144.62,144.42,144,146.65,143.57,147.42Z"/><path class="cls-14" d="M138.79,150.7c.72-1.83,2.31-2.95,2.5-4.16.79-5.15,2.39-5,2.78-4.9s0,1.25-.36,6.18"/><path class="cls-14" d="M80.33,126c-.25-.59-1-14.53-2.23-16a5.79,5.79,0,0,1-1.35-3.72c.26-9.82,9.41-10.78,13.19-5.06,1.69,2.55,2.46,8.4,2.51,11.46.13,6.51-3.82,7-3.82,7l.85,7.11Z"/><path class="cls-15" d="M78.2,110.09l4.9.49c.56,2.17,1.07,4.51,1.47,7a75.18,75.18,0,0,1,.88,8.78L80.33,126C80.09,125.38,79.32,112.19,78.2,110.09Z"/><path class="cls-16" d="M80.1,125.66c-1.76-.86-5,.69-6.24,1.42a17.41,17.41,0,0,0-7.51,10.26,154.72,154.72,0,0,0-5.23,58.39,21,21,0,0,0,4.77,1,21.4,21.4,0,0,0,5.89-.3l1.67-31.64C83,134.81,82.73,127,80.1,125.66Z"/><path class="cls-17" d="M72.26,146.1c-2.6,9.12-5.23,32.14-5.23,41.62v9.09a21.39,21.39,0,0,0,4.75-.37l1.67-31.64c4.07-12.74,6.36-21.48,7.44-27.42C77.2,142.59,73.59,141.47,72.26,146.1Z"/><path class="cls-17" d="M76.52,128.11l1.72-6.45c4.28-2.52,15.41.57,22.21,9.93C92.65,130.42,84.32,129.28,76.52,128.11Z"/><path class="cls-18" d="M66.58,235.38H85q2.07-9,4.28-17.58.51,8.79,1,17.58H108.3q.69-6.4,1.21-13.13c1-13.13,1.3-25.49,1.15-36.93l-39.23-3a101.72,101.72,0,0,0-.82,14.34v0A76.87,76.87,0,0,1,70.07,207Z"/><path class="cls-16" d="M68.24,191.52a53.31,53.31,0,0,0,15.52,3.7,55.34,55.34,0,0,0,29.74-6.09,156.49,156.49,0,0,0-1.19-21.26A157,157,0,0,0,104,133.6a9,9,0,0,0-4.15-4.83,32.65,32.65,0,0,0-15.25-4,32.09,32.09,0,0,0-6.51.63,6.87,6.87,0,0,0-5.49,6.78c.05,9.76-.28,20.22-1.14,31.29C70.69,173.4,69.57,182.77,68.24,191.52Z"/><path class="cls-17" d="M111,159.23c-4.15-7.26-8.26-15.27-12.5-21-2.33.61-7.72,0-2.08,14.77,3.18,8.38,12.25,21.91,17,27.4-.17-4-.51-8.13-1-12.5Q111.74,163.42,111,159.23Z"/><polygon class="cls-19" points="79.56 237.95 84.45 237.95 86.97 226.82 89.23 217.8 88.45 202.07 79.96 200.54 83.99 204.53 79.56 237.95"/><path class="cls-16" d="M94.6,145.38c-3.46-7.89,4.11-17.84,7.2-15.18,4,3.49,11.84,21.46,15.8,30l14.25-10.1c3.42-1.26,7.87,3.4,7.82,5.93L120.3,174a6.47,6.47,0,0,1-9.5-1.21C106.27,166.31,100.31,158.39,94.6,145.38Z"/><polygon class="cls-17" points="117.6 160.19 131.85 150.09 119.09 162.99 117.6 160.19"/><path class="cls-18" d="M83.13,114.73a9.27,9.27,0,0,0,3.81-4.52c1.48-4-.84-6.8.71-8.2,1.38-1.26,3.48.79,6.18-.36,3-1.26,4.69-5.51,3.57-7.14s-4,.07-5.83-1.9c-1.38-1.46-.76-3.38-1.9-3.8s-2.15.61-4.13.5c-2.3-.12-3.19-2.16-4.79-1.93s-1.88,1.92-4.23,3c-2.17,1-4,.78-4.69,1.66s1.46,2.27,1.07,4.4c-.34,1.84-2.13,2.06-2.14,3.57s2.17,1.88,2.5,3.8c.37,2.16-2.11,3.55-1.43,5,.45,1,1.63.52,2.62,1.66,1.34,1.55,0,3.34,1.07,4.64C76.81,116.69,80.64,116.2,83.13,114.73Z"/><path class="cls-19" d="M76.73,113.3c-.27-1.88,3.44-3.13,3.22-5.29-.25-2.43-5.19-3.1-5.08-5,.07-1.29,2.43-1.21,3.83-3.52s.39-4.58,1.35-5c1.33-.55,3.41,3.69,5.5,3.22C87.21,97.37,87,94.4,88.66,94c1.86-.43,3.09,3.07,6.43,3.74l.29,0a1.22,1.22,0,0,1,.84,1.94,6.15,6.15,0,0,1-2.39,1.91c-2.7,1.15-4.8-.9-6.18.36-1.55,1.4.77,4.24-.71,8.2a9.27,9.27,0,0,1-3.81,4.52l-.22.13a4.92,4.92,0,0,1-5.15-.19A2.1,2.1,0,0,1,76.73,113.3Z"/><path class="cls-14" d="M87.92,107.82A2.43,2.43,0,0,0,86.05,106a1.76,1.76,0,0,0-1.15.34c-.91.69-.83,2.63,0,4.11a2.07,2.07,0,0,0,.82.84,1.33,1.33,0,0,0,1.81-.66,4.6,4.6,0,0,0,.32-1A3.36,3.36,0,0,0,87.92,107.82Z"/><path class="cls-20" d="M232.61,106.42l-2.56-1.48,4.18-4.39Z"/><path class="cls-21" d="M261.1,187.16c.07,1.23.12,2.73.17,4.18a22.25,22.25,0,0,0,.52,4c1,4.64-1.33,11.49-4.43,12.48-1.41.44-1.88-5.64-1.88-5.64s-.51.54-.86.35c-.6-.32-1.17-1.71-1.24-4a10.58,10.58,0,0,1,1.17-4.42c.74-1.11.31-4.1.48-6C258,187.83,258.18,187.38,261.1,187.16Z"/><path class="cls-20" d="M256.21,198.2a4,4,0,0,1,3.52-4l.54-.07c.44-.07.86-.15,1.25-.25a24,24,0,0,1-.25-2.54c0-1.45-.1-3-.17-4.18-2.92.22-3.14.67-6.07.89-.17,1.93.26,4.92-.48,6a10.58,10.58,0,0,0-1.17,4.42c.07,2.3.64,3.69,1.24,4,.35.19.86-.35.86-.35s.48,6.18,1.91,5.62h0a44.53,44.53,0,0,1-1.16-8.62C256.22,198.84,256.21,198.52,256.21,198.2Z"/><path class="cls-21" d="M244.4,121.91c.25-.59,1-14.53,2.23-16a5.76,5.76,0,0,0,1.35-3.72c-.26-9.83-9.41-10.78-13.19-5.07-1.69,2.55-2.46,8.41-2.51,11.46-.13,6.51,3.83,7,3.83,7l-.86,7.12Z"/><path class="cls-22" d="M244.63,121.62c1.76-.87,5.06.68,6.24,1.42a17.36,17.36,0,0,1,7.51,10.25,154.1,154.1,0,0,1,4.26,19.47,155.45,155.45,0,0,1,1,38.93,21,21,0,0,1-10.66.7l-1.67-31.63C241.7,130.76,242,122.91,244.63,121.62Z"/><path class="cls-23" d="M252.47,142.05c2.6,9.12,5.23,32.14,5.23,41.63v9.08a20.81,20.81,0,0,1-4.75-.37l-1.67-31.63c-4.07-12.74-6.36-21.49-7.44-27.43C247.53,138.54,251.14,137.43,252.47,142.05Z"/><path class="cls-18" d="M257.25,224l-2.59-21a76.72,76.72,0,0,1-.54-10.28v0a103.35,103.35,0,0,0-.83-14.34l-39.23,3c-.15,11.44.16,23.79,1.15,36.92.53,7,1.2,13.57,2,20,5-1.17,15.14-4.1,17.16-4.9l1.12-19.56c1.49,5.81,7.74,9.87,9.13,15.93C250.08,227.61,257,224.37,257.25,224Z"/><path class="cls-22" d="M256.49,187.47A53.28,53.28,0,0,1,241,191.18a55.53,55.53,0,0,1-29.74-6.09,155,155,0,0,1,1.2-21.26,156.77,156.77,0,0,1,8.3-34.27,9,9,0,0,1,4.15-4.84,32.54,32.54,0,0,1,15.25-4,32.13,32.13,0,0,1,6.51.62,6.87,6.87,0,0,1,5.49,6.78c0,9.76.28,20.22,1.14,31.29C254,169.35,255.16,178.73,256.49,187.47Z"/><path class="cls-19" d="M244.77,196.5,236.28,198l-.78,15.72,2.26,9,1.82,8.78c.11,0,3.55-1.21,5-1.87l-3.89-29.2Z"/><path class="cls-21" d="M220,193.33c-.31,1.2-.7,2.65-1.08,4a23.09,23.09,0,0,0-.68,4c-.4,4.73-4.67,10.58-7.92,10.61-1.47,0-.13-5.94-.13-5.94s-.64.36-.92.07c-.48-.47-.62-2,0-4.19A10.61,10.61,0,0,1,211.7,198c1-.84,1.51-3.83,2.25-5.62C216.8,193,217.15,192.68,220,193.33Z"/><path class="cls-23" d="M235.38,187.47a6.4,6.4,0,0,1-3.23-6.25c.51-4.94,2.64-28,2.29-34.28-.59-10.51-4.54-2-6.64-8.66l-6.2-10.48a9.3,9.3,0,0,0-.87,1.76,156.77,156.77,0,0,0-8.3,34.27,155,155,0,0,0-1.2,21.26A55.53,55.53,0,0,0,241,191.18c1.22-.11,2.39-.25,3.53-.42a30.76,30.76,0,0,1-9.07-3.27Z"/><path class="cls-20" d="M212.07,202.43a4,4,0,0,1,4.54-2.78l.54.09c.44.07.87.11,1.27.14a24.26,24.26,0,0,1,.51-2.51c.38-1.39.77-2.84,1.08-4-2.86-.65-3.21-.29-6.06-.94-.74,1.79-1.22,4.78-2.25,5.62a10.61,10.61,0,0,0-2.42,3.87c-.62,2.22-.48,3.72,0,4.19.28.29.92-.07.92-.07s-1.37,6.05.17,5.94h0a43.72,43.72,0,0,1,1.44-8.58C211.89,203,212,202.73,212.07,202.43Z"/><path class="cls-20" d="M242.43,108.25l-.51-3.76-3-4.32-1.56,6.49-3.65,6.55.08.88a3.91,3.91,0,0,0,2.34,1.44l-.51,4.22a8.65,8.65,0,0,0,2.7-3.49,14.44,14.44,0,0,0,.51-6.84,16.57,16.57,0,0,1-.23-3.65c.09-1.22,1.36-2.88,1.55-3.54.37,1.06,0,3.13.37,4.19-.37,2.19-.38,2.56,0,2.78a1.45,1.45,0,0,1,.51.35c.32.39.13.77.32,1.18s.73.43,1.3.82c1.09.75.77,2,1.47,2.36a.71.71,0,0,0,.34.06.91.91,0,0,0,.85-.83c.07-.62.14-1.23.21-1.81Z"/><path class="cls-22" d="M223.65,125.85c1.94-.31,4.62,2.15,5.54,3.2a17.38,17.38,0,0,1,4.14,12,154.63,154.63,0,0,1-1.68,19.85,155.52,155.52,0,0,1-10.59,37.47,20.42,20.42,0,0,1-4.85-.44,21,21,0,0,1-5.53-2l7.75-30.72C218.14,133.72,220.75,126.31,223.65,125.85Z"/><path class="cls-11" d="M232.27,105.9c-2.41.93-1.9,10.71-.13,11.51s4-.59,5.32-2.66c1-1.54,1-11.37,2.67-11.8,1-.24.06,6.12.72,6s1,1.42,1.64,1.37,1,1.51,2,1.81c1.32.39,3-1.71,3.26-2,2.76-3.41,3.79-11.51,1.94-16.1a8.65,8.65,0,0,0-6.07-5c-3-.6-5.17,2.74-8.69,1.9-1.94-.46-2.38-2.37-3.26-2.08-1.14.38-1.51,3.67-.54,6.16,1.49,3.81,5.86,5,6.7,5.25-.2,1-.41,1.91-.64,2.89-.26,1.15-.83,3.24-1.11,4.33C234.26,108,233.17,105.55,232.27,105.9Z"/><path class="cls-21" d="M239.63,103.61a2.41,2.41,0,0,1,2.2-1.36,1.77,1.77,0,0,1,1,.57c.74.87.27,2.75-.89,4a2,2,0,0,1-1,.64,1.32,1.32,0,0,1-1.64-1,5,5,0,0,1-.11-1A3.4,3.4,0,0,1,239.63,103.61Z"/><path class="cls-24" d="M249.68,94a8.65,8.65,0,0,0-6.07-5c-3-.6-5.17,2.74-8.69,1.9-1.94-.46-2.38-2.37-3.26-2.08h0c-.42,2.82.18,4.14.92,4.8,2.24,2,7.5-.44,8.51,1.39.4.73-.33,1.34.13,2.08,1,1.57,4.9-.18,5.83,1.2s-2.08,4-.92,6.1c.37.71.82.68,1.2,1.25.6.92.56,2.69-1.82,6.35a7.06,7.06,0,0,0,2.24-1.89C250.5,106.71,251.53,98.61,249.68,94Z"/><path class="cls-2" d="M76.32,224.47c-10.77-2.54-12.63-20.39-21.52-20.53-6.45-.1-9.34,10.08-15.27,9.09-7.56-1.26-14.66-57.54-28.6-57.54a8.57,8.57,0,0,0-5.34,2.34,11.89,11.89,0,0,0-3.81,10.23c2.06,20.1,7.71,38,16,48.42,26.05,32.85,94.24,38.27,153.05,30.21-42.87-3-56.92-26.39-73.44-26.43C85.89,220.24,84.11,226.32,76.32,224.47Z"/><path class="cls-1" d="M9.3,167.6c13.56-.62,22.94,53.27,30.35,54.15,5.8.69,8.17-9.24,14.45-9.43,8.66-.27,11.25,16.84,21.83,18.81,7.67,1.43,9.13-4.5,20.27-5,12.25-.53,23.71,12,47,18.52a71.14,71.14,0,0,0,27.51,2h.06c-42.87-3-56.92-26.39-73.44-26.43-11.45,0-13.23,6.06-21,4.21-10.77-2.54-12.63-20.39-21.52-20.53-6.45-.1-9.34,10.08-15.27,9.09-7.56-1.26-14.66-57.54-28.6-57.54a8.57,8.57,0,0,0-5.34,2.34,11.68,11.68,0,0,0-3.8,10.28c.2,1.55.29,2.88.5,4.3C4.4,169.19,7.37,167.69,9.3,167.6Z"/></g></g></svg>