<?xml version="1.0" encoding="UTF-8"?>
<svg width="583px" height="549px" viewBox="0 0 583 549" version="1.1" xmlns="http://www.w3.org/2000/svg" xmlns:xlink="http://www.w3.org/1999/xlink">
    <!-- Generator: Sketch 62 (91390) - https://sketch.com -->
    <title>header illustration</title>
    <desc>Created with Sketch.</desc>
    <defs>
        <polygon id="path-1" points="0.500106232 0.880430528 534.025566 0.880430528 534.025566 539.432632 0.500106232 539.432632"></polygon>
        <polygon id="path-3" points="0.378304613 0.644823875 397.552971 0.644823875 397.552971 320.74364 0.378304613 320.74364"></polygon>
        <polygon id="path-5" points="0 549.119569 582.429908 549.119569 582.429908 1.07632094 0 1.07632094"></polygon>
    </defs>
    <g id="done-pages" stroke="none" stroke-width="1" fill="none" fill-rule="evenodd">
        <g id="Boletos-landing-page_1" transform="translate(-927.000000, -322.000000)">
            <g id="user-scaling-in-graph" transform="translate(927.000000, 321.000000)">
                <g id="Group-50">
                    <g id="Group-3" transform="translate(48.404059, 0.195890)">
                        <mask id="mask-2" fill="white">
                            <use xlink:href="#path-1"></use>
                        </mask>
                        <g id="Clip-2"></g>
                        <path d="M85.3029035,228.302094 C126.862629,195.418337 78.6672448,207.353659 80.2204773,163.224501 C81.3520566,131.082329 117.518494,71.1301761 223.434105,27.3809589 C339.544686,-20.5799022 438.880571,3.56197652 449.902713,44.394364 C463.68066,95.4345793 397.619876,155.459922 409.083033,184.190157 C417.883966,206.251507 459.37485,195.085753 501.56813,211.288689 C560.836212,234.048571 543.729142,372.500039 410.292058,465.681448 C256.628533,572.986341 44.3251028,545.077339 9.36016181,495.569804 C-15.991733,459.672348 17.6964164,422.578023 52.0848113,388.411292 C79.5094755,361.163151 25.3033832,372.784188 13.3249921,346.586536 C1.54236845,320.815108 27.9645308,273.671174 85.3029035,228.302094" id="Fill-1" fill="#63B1FF" mask="url(#mask-2)"></path>
                    </g>
                    <path d="M496.934894,232.178679 C475.929684,251.866742 483.290327,253.249814 454.584569,246.327994 C400.75065,233.347564 380.631772,305.294237 342.722789,311.36684 C312.062582,316.277016 297.960866,278.050401 270.954628,284.43729 C235.61106,292.795998 234.702139,364.203434 208.974844,366.041791 C187.123101,367.602456 177.870396,316.799031 155.14953,314.631321 C144.817953,313.644335 125.75751,333.907153 104.318815,370.821732 C109.664774,374.129266 110.257455,378.90275 100.489516,388.606859 C96.3009511,392.768992 92.123143,396.974178 88.0615046,401.214883 C76.1046264,425.355685 63.9132574,453.990127 52.4737648,486.406761 C53.8226245,489.533474 55.5662463,492.653728 57.7637906,495.765372 C92.7287315,545.273982 305.033237,573.182984 458.695687,465.877016 C557.955202,396.563023 592.828713,302.21273 579.796189,249.052162 C558.092885,225.606663 519.917141,210.638268 496.934894,232.178679" id="Fill-4" fill="#44A1FF"></path>
                    <path d="M338.405254,422.738718 C311.505505,424.207896 305.401215,411.675215 280.801197,408.843415 C243.793605,404.583337 184.989127,422.961517 88.071293,517.803689 C160.532169,550.783239 330.136765,555.652515 458.695795,465.876585 C502.518679,435.274628 533.793079,399.789403 553.937773,365.122182 C539.258435,357.875313 516.724732,349.729716 487.736079,348.904178 C425.125966,347.119638 401.727444,419.279423 338.405254,422.738718" id="Fill-6" fill="#2692FF"></path>
                    <g id="Group-10" transform="translate(86.051661, 228.375930)">
                        <mask id="mask-4" fill="white">
                            <use xlink:href="#path-3"></use>
                        </mask>
                        <g id="Clip-9"></g>
                        <polygon id="Fill-8" fill="#FFFFFF" mask="url(#mask-4)" points="0.378304613 315.711947 138.477236 176.777211 159.506111 197.819286 252.452661 105.563513 267.994666 121.11635 373.353092 13.0052935 361.896389 1.5403229 397.552971 0.644823875 397.552971 36.3054892 386.581384 25.3270157 268.452891 143.530734 251.537286 126.605587 160.877559 216.574178 138.477236 194.159795 12.7213397 320.743748"></polygon>
                    </g>
                    <path d="M579.068407,302.15138 C564.083586,267.32271 534.222584,247.482886 524.140557,253.536115 C515.528937,258.705685 515.528937,274.21547 518.111562,300.064393 C519.657265,315.521438 528.430232,341.623297 522.417372,340.562045 C478.501983,332.807153 443.074514,333.193552 438.029736,347.454804 C432.944082,361.830147 450.085573,378.473297 467.307737,397.429462 C478.816071,410.097759 399.852916,390.541008 389.808536,407.769677 C381.773463,421.551967 405.382811,462.20138 439.01933,478.697074 C445.668972,474.655489 452.235789,470.387877 458.696118,465.877016 C530.060911,416.041204 568.140922,353.261556 579.068407,302.15138" id="Fill-11" fill="#FF7592"></path>
                    <path d="M403.031235,416.516184 C412.775509,399.803072 473.08374,422.282035 478.211343,406.485949 C483.668094,389.674892 444.876006,368.504736 449.809993,354.559922 C454.704181,340.725969 487.347878,341.212466 529.949904,348.734873 C535.783131,349.764912 529.995081,327.11589 528.445076,312.127045 C525.861375,287.140254 524.989026,271.913542 533.342491,266.898963 C540.876314,262.376262 559.35053,270.792016 579.068192,302.151703 C562.527987,259.662857 533.324205,248.022446 524.140342,253.536438 C515.528722,258.706008 515.528722,274.215793 518.111347,300.064716 C519.65705,315.520685 528.430017,341.62362 522.417157,340.561292 C478.501768,332.807476 443.075375,333.193875 438.02952,347.455127 C432.944943,361.83047 450.085358,378.47362 467.307522,397.429785 C478.815856,410.098082 399.852701,390.541331 389.808321,407.77 C381.630187,421.798767 404.42312,462.80229 439.019115,478.696321 C411.853681,460.458063 396.056747,428.481644 403.031235,416.516184" id="Fill-13" fill="#FF92B1"></path>
                    <path d="M30.6455779,261.81453 C53.5934044,264.481654 56.9365114,345.168053 71.4480483,343.470695 C80.1328122,342.454648 90.208386,307.991928 99.1674395,305.836057 C123.756701,299.918444 123.109163,407.507485 136.539676,412.363845 C145.549285,415.622945 151.22224,379.985959 172.21777,378.11316 C196.147661,375.97774 203.687938,498.523337 235.275351,500.597407 C247.019251,501.368053 250.821659,485.129599 268.659093,480.182828 C294.986598,472.882143 324.812104,497.689188 345.979737,519.913063 C318.880993,530.635372 248.85753,540.546135 234.427742,541.3932 C207.737744,542.960323 121.167622,543.478033 63.1677273,504.55181 C-42.3090199,433.761106 11.949779,259.641438 30.6455779,261.81453" id="Fill-15" fill="#17DD8C"></path>
                    <path d="M26.4574435,289.0518 C49.4052701,291.718924 51.0800506,355.86227 70.8590247,356.20454 C83.3182295,356.418728 91.3565303,324.294853 100.289768,322.027045 C114.681908,318.371859 114.632429,420.834384 135.734447,427.998376 C147.763394,432.083014 157.86048,389.890157 170.749944,391.242016 C184.946316,392.729491 195.669429,507.961487 235.410237,509.466184 C247.170272,509.910705 257.372772,498.284286 275.151045,493.129785 C293.668287,487.761096 322.551527,501.02998 344.150493,518.01002 C323.116241,496.302779 294.237303,473.090841 268.659523,480.18272 C250.822089,485.129491 247.019682,501.367945 235.275781,500.597299 C203.688368,498.523229 196.148091,375.977632 172.2182,378.113053 C151.221595,379.985851 145.549715,415.622838 136.540106,412.364814 C123.109593,407.507378 123.757132,299.918337 99.1678697,305.835949 C90.2077406,307.99182 80.1332424,342.45454 71.447403,343.470587 C56.9358661,345.167945 53.5938347,264.481546 30.6460081,261.814423 C22.0472959,260.815597 5.93089557,297.098376 1.28518155,343.469511 C8.08971661,310.922642 19.6389251,288.259628 26.4574435,289.0518" id="Fill-17" fill="#6EFFBA"></path>
                    <path d="M156.640053,99.3258023 C151.415641,95.7459589 154.137025,81.3910665 147.371213,80.775411 C128.831383,79.0898924 79.9508129,122.450558 78.2728055,123.777661 L142.639448,123.777661 C147.310977,116.208973 153.254996,108.281869 160.630699,100.191164 C159.08392,100.327857 157.736136,100.075998 156.640053,99.3258023" id="Fill-19" fill="#DDF9FF"></path>
                    <path d="M486.986246,130.881487 L513.789187,130.881487 C549.351112,78.8080039 544.790374,72.5911742 541.833423,70.7076125 C537.944964,68.230998 524.547796,79.8122114 513.927946,89.1869667 C507.177193,95.1465558 501.549414,100.216027 500.200554,100.216027 C496.181942,100.216027 503.849145,85.7707241 500.779252,84.0152446 C499.55947,83.3177886 497.811545,83.637456 495.70328,84.6750294 C488.67501,101.445186 477.98847,117.61045 472.57582,130.881487 L486.986246,130.881487 Z" id="Fill-21" fill="#DDF9FF"></path>
                    <path d="M276.296177,106.071213 C273.896412,102.057613 254.962895,109.010646 253.545194,106.071213 C252.386724,103.672094 263.381975,97.5155382 275.645412,86.7383366 C280.081375,82.8388258 284.682987,78.3398043 288.936091,73.187456 C297.739176,62.5254207 303.386316,43.8264971 299.048237,40.3036986 C293.338709,35.6636791 267.015506,55.3894129 244.723823,71.4567319 C241.788386,73.5727789 238.961589,75.6522309 236.264945,77.6434247 C222.187969,88.0417613 211.749903,95.9731703 208.884382,93.4233659 C205.356264,90.2848141 210.527969,81.3222896 206.356615,78.2461644 C198.540973,72.4835421 173.146052,99.0858904 160.630914,100.191272 C153.254135,108.281977 147.311192,116.20908 142.639663,123.777769 L261.971803,123.777769 C270.143484,116.432955 278.101111,109.088141 276.296177,106.071213" id="Fill-23" fill="#FFFFFF"></path>
                    <path d="M456.254724,90.958591 C451.05075,87.487456 419.248208,114.10272 413.466612,130.881487 L474.429911,130.881487 C479.843636,117.61045 488.675763,101.445186 495.702957,84.6750294 C483.810617,90.5280626 460.327119,119.397143 453.942086,119.887945 C448.115313,120.336771 460.308833,93.6623092 456.254724,90.958591" id="Fill-25" fill="#FFFFFF"></path>
                    <mask id="mask-6" fill="white">
                        <use xlink:href="#path-5"></use>
                    </mask>
                    <g id="Clip-28"></g>
                    <polygon id="Fill-27" fill="#FF7592" mask="url(#mask-6)" points="406.288613 192.403131 413.178124 192.403131 413.178124 177.426125 406.288613 177.426125"></polygon>
                    <polygon id="Fill-29" fill="#FFCC5E" mask="url(#mask-6)" points="416.351279 191.476419 423.24079 191.476419 423.24079 161.738748 416.351279 161.738748"></polygon>
                    <polygon id="Fill-30" fill="#17DD8C" mask="url(#mask-6)" points="433.302703 147.455215 426.413192 147.455215 426.413192 190.363826 433.302703 189.241223"></polygon>
                    <polygon id="Fill-31" fill="#D69792" mask="url(#mask-6)" points="343.274057 302.276125 338.426122 320.542368 346.419245 324.202935 354.758727 303.119961"></polygon>
                    <path d="M313.651741,241.988268 C319.352664,241.507153 365.867889,237.95637 372.710071,255.696292 C373.36514,257.392573 374.291271,260.93044 367.340448,285.354315 C363.948937,297.268112 360.685427,307.118601 358.213594,314.19864 C354.947933,314.462339 350.664712,314.446194 345.803868,313.434452 C343.281479,312.909207 341.05059,312.209599 339.138092,311.477701 C341.487302,297.893454 343.836512,284.309207 346.184647,270.724961 C339.558669,272.103728 332.257186,273.303826 324.351189,274.132593 C313.55816,275.26273 303.663295,275.488757 294.910765,275.225059 C301.158116,264.146487 307.404391,253.06684 313.651741,241.988268" id="Fill-32" fill="#28273F" mask="url(#mask-6)"></path>
                    <path d="M306.125448,261.636937 C301.424876,269.974119 299.611337,266.888307 294.910765,275.225489 C303.663295,275.488112 313.55816,275.262084 324.351189,274.131947 C332.257186,273.304256 339.558669,272.104159 346.184647,270.725391 C343.836512,284.308562 340.678416,298.296429 338.32813,311.880675 C340.567625,312.476957 343.042686,312.826761 345.395123,313.340166 L354.236931,262.090068 L306.125448,261.636937 Z" id="Fill-33" fill="#1D1D33" mask="url(#mask-6)"></path>
                    <path d="M248.297871,229.80453 L245.244113,232.521164 C240.804923,236.471262 235.923643,239.890734 230.702458,242.725763 C230.669113,242.742984 230.636844,242.760205 230.60565,242.777427 C219.480246,248.820969 218.9037,249.703552 219.039231,250.115783 C219.381287,251.164119 224.724019,250.349344 227.647624,249.903748 C230.945554,249.400029 233.619609,248.692886 235.435299,248.143963 C231.769499,254.86774 232.924742,256.559716 233.300143,256.816957 C233.918639,257.241027 235.628916,254.047583 237.841519,250.43545 C239.520602,247.695137 240.856554,245.659814 240.798469,243.310205 C244.895604,240.074785 248.992739,236.839364 253.089873,233.60502 C251.492539,232.33819 249.895205,231.07136 248.297871,229.80453" id="Fill-34" fill="#D69792" mask="url(#mask-6)"></path>
                    <path d="M312.044619,173.380127 C300.555646,181.59138 289.066674,189.803708 277.577702,198.014961 C275.362947,199.597153 273.300934,201.382769 271.418554,203.349207 C262.013108,213.16956 252.608737,222.989912 243.20329,232.810264 C247.511252,237.41046 245.704167,235.480616 250.012128,240.080812 C258.421527,233.004002 266.832001,225.928268 275.242475,218.851458 C278.625381,216.004589 282.211584,213.408503 285.970966,211.082573 C296.461739,204.593434 306.953587,198.104295 317.444361,191.61408 C315.644805,185.536096 313.844174,179.458112 312.044619,173.380127" id="Fill-35" fill="#FFCC5E" mask="url(#mask-6)"></path>
                    <polygon id="Fill-36" fill="#D69792" mask="url(#mask-6)" points="226.918336 372.361624 219.024172 389.531096 226.274025 394.503699 238.089993 375.155753"></polygon>
                    <path d="M312.044619,173.380127 C308.746689,175.73727 305.446608,178.095489 302.148678,180.453708 C295.53023,188.79089 289.888468,195.523278 285.722492,200.39363 C279.803213,207.313297 276.440744,210.966331 266.825547,222.005078 C261.988368,227.556742 257.780442,232.441086 254.384628,236.400871 C261.337602,230.551067 268.289501,224.701262 275.242475,218.851458 C278.625381,216.004589 282.211584,213.408503 285.970966,211.082573 C296.461739,204.593434 306.953587,198.104295 317.444361,191.61408 C315.644805,185.536096 313.844174,179.458112 312.044619,173.380127" id="Fill-37" fill="#FFB828" mask="url(#mask-6)"></path>
                    <path d="M220.17038,378.256957 C225.628207,381.210382 233.496556,384.320949 240.469967,383.869971 C244.097044,373.761164 321.849022,235.374276 321.849022,235.374276 C321.849022,235.374276 290.218583,239.147857 276.273912,240.9141 C274.192537,243.560773 271.330244,247.640029 268.849805,253.070068 C266.555452,258.093258 265.730432,261.769971 264.799998,265.227114 C261.889301,276.034452 259.812229,277.715665 254.67602,291.564687 C252.804397,296.612632 250.363757,303.714198 247.958613,312.551869 C247.485329,314.294432 246.799067,315.975646 245.910583,317.547074 C241.104598,326.036018 223.385485,364.16684 220.17038,378.256957" id="Fill-38" fill="#28273F" mask="url(#mask-6)"></path>
                    <path d="M257.375784,316.552446 C261.794537,305.696673 261.776251,303.576321 266.825332,292.240509 C274.380668,275.275538 278.883321,258.383757 283.023481,255.096673 C285.57061,253.074266 288.229607,252.796575 291.122018,252.395108 C309.275692,249.878669 313.032922,247.475245 319.305013,243.580039 C320.173059,243.041879 322.784727,241.443542 322.784727,241.443542 C322.784727,241.443542 290.218476,239.14775 276.273804,240.913992 C274.19243,243.560665 271.330136,247.639922 268.849697,253.071037 C266.555345,258.093151 265.7314,261.769863 264.799891,265.227006 C261.889193,276.034344 259.813197,277.715558 254.675913,291.564579 C252.804289,296.612524 250.363649,303.71409 247.958505,312.551761 C247.485221,314.294325 246.800035,315.976614 245.910476,317.548043 C241.10449,326.03591 236.260858,335.611937 231.729162,346.267515 C224.272786,363.804012 224.087775,364.278669 220.170273,378.256849 C222.982011,379.680822 225.316162,380.951957 228.86149,382.049804 C233.919177,361.968885 237.159022,358.799119 241.85314,348.293151 C249.192271,331.869569 251.293007,331.498239 257.375784,316.552446" id="Fill-39" fill="#1D1D33" mask="url(#mask-6)"></path>
                    <path d="M389.441741,202.340157 C394.501579,199.227436 399.560341,196.11364 404.619103,193.00092 C404.97299,192.064521 408.515092,187.960509 421.812225,190.649159 C433.546444,188.388885 436.152734,188.313542 436.251693,188.701018 C436.315156,188.955029 435.310503,189.430763 429.131994,192.061292 C427.196907,192.884677 425.445756,193.626262 423.926944,194.266673 C422.395225,194.912466 420.724747,195.109432 419.076857,194.901703 C418.15718,194.78546 417.111653,194.734873 415.969317,194.815597 C415.142145,194.873718 414.177291,195.101898 413.217815,195.401115 C410.559894,196.228806 408.082682,197.548376 405.851793,199.212368 C402.164479,201.960215 395.33628,207.107182 393.538876,208.858356 L389.441741,202.340157 Z" id="Fill-40" fill="#D69792" mask="url(#mask-6)"></path>
                    <path d="M343.765627,143.665166 C343.748417,143.650098 343.733358,143.636106 343.716148,143.621037 C340.761349,140.959295 338.463769,137.64638 336.982605,133.953523 C336.577087,132.946086 336.167266,131.991389 335.755293,131.093738 C334.435476,128.791487 333.889048,128.807632 331.879742,128.791487 C323.655354,129.246771 316.965913,134.654207 315.419135,141.63953 C313.87128,148.628082 318.11793,154.276614 318.793435,155.146282 C318.642845,157.881213 318.281428,162.97544 318.129762,165.710372 C326.184197,166.509002 327.86328,166.133366 330.941779,164.600685 C331.166589,163.024951 331.392474,161.449217 331.617284,159.873483 C334.973299,158.812231 336.34152,158.972603 339.715821,158.522701 C340.825887,157.968395 341.192683,151.650391 340.401007,145.909295 C341.057151,145.471233 342.17905,144.72319 343.765627,143.665166" id="Fill-41" fill="#D69792" mask="url(#mask-6)"></path>
                    <path d="M323.506915,150.208014 C323.369232,150.251067 320.878037,150.980812 319.169911,149.433063 C317.398323,147.827192 317.465013,144.6768 319.247358,143.000969 C320.485426,141.836389 322.452782,141.561928 324.193177,142.314276 C325.105325,139.399599 326.510118,137.84001 327.611579,136.955274 C330.072657,134.982378 332.254066,135.397838 335.334716,133.470147 C335.737007,133.218288 336.103803,132.950284 336.452312,132.677975 C336.219972,132.133356 335.988708,131.60273 335.755293,131.09363 C334.435476,128.79138 333.889048,128.807524 331.879742,128.79138 C323.655354,129.246663 316.965913,134.6541 315.419135,141.639423 C313.87128,148.627975 318.11793,154.276507 318.793435,155.146174 C318.643921,157.830519 318.295411,162.780519 318.139443,165.549892 C319.271022,164.138836 320.543511,162.238053 321.570753,159.817407 C323.24876,155.86408 323.512293,152.326213 323.506915,150.208014" id="Fill-42" fill="#C18380" mask="url(#mask-6)"></path>
                    <path d="M271.009379,242.364335 C272.290473,252.915509 311.21379,245.03684 322.784511,241.443004 C326.176023,231.491341 330.87767,218.917759 335.273834,208.286937 C347.140358,179.588992 336.566761,167.076761 334.31651,167.301712 C333.867965,165.952006 333.41727,164.601223 332.96765,163.25044 C325.767277,163.700342 318.569056,164.150245 311.368683,164.601223 C311.594569,167.076761 311.819379,169.553376 312.044189,172.02999 C310.338214,174.580871 307.713639,178.564335 304.620082,183.510029 C294.054013,200.405039 276.346733,232.023043 271.009379,242.364335" id="Fill-43" fill="#FFCC5E" mask="url(#mask-6)"></path>
                    <path d="M323.782173,182.342006 C320.179835,193.103063 330.817972,215.91138 329.703603,222.34455 C332.514265,215.272045 335.386239,208.376057 336.939472,202.803943 C341.60132,186.090832 340.581608,176.859227 339.907178,175.037016 C332.435743,178.160499 331.253608,179.218523 323.782173,182.342006" id="Fill-44" fill="#FFB828" mask="url(#mask-6)"></path>
                    <path d="M335.666768,130.833699 C336.064757,130.446223 339.033539,127.471272 339.041085,123.404932 C339.050749,118.542114 334.823461,113.138982 328.918166,112.599746 C323.306522,112.087417 317.923991,116.124697 316.769823,122.054149 C308.034504,126.712466 306.453305,130.017847 306.645845,132.184481 C306.917984,135.270294 310.787081,136.044168 311.369006,140.288102 C311.924039,144.330763 308.758413,146.128219 310.01907,149.067652 C311.018345,151.393581 313.222343,150.78546 315.419888,153.794853 C317.624961,156.817162 316.960212,159.566086 318.119758,159.872838 C319.011469,160.109628 323.518425,155.145636 324.192854,149.743581 C321.72855,149.219413 320.332362,146.906399 320.818554,145.01638 C321.174592,143.627926 322.52883,142.53546 324.192854,142.314814 C324.546742,140.365597 325.371762,137.650039 327.568231,135.5609 C330.32296,132.940059 332.857181,133.569706 335.666768,130.833699" id="Fill-45" fill="#1D1D33" mask="url(#mask-6)"></path>
                    <path d="M328.917736,112.59953 C323.306092,112.087202 317.923561,116.124481 316.769393,122.053933 C308.034074,126.713327 306.45395,130.018708 306.645415,132.184266 C306.756206,133.440333 307.466133,134.314305 308.304061,135.193659 C308.074948,134.315382 307.969535,133.306869 308.177135,132.23593 C308.675158,129.663523 310.825374,127.407554 313.894192,126.22683 C316.503708,125.222622 319.30469,123.918121 320.679365,121.482407 C323.821326,115.910294 327.734526,115.408728 331.019548,116.365577 C333.792563,117.173894 338.939527,122.049628 337.695005,128.160978 C338.41031,126.89953 339.037411,125.268904 339.040655,123.404716 C339.050319,118.541898 334.823031,113.138767 328.917736,112.59953" id="Fill-46" fill="#363668" mask="url(#mask-6)"></path>
                    <path d="M352.719518,235.435949 C352.744258,235.428415 352.767922,235.417652 352.792662,235.409041 C364.061127,231.201703 384.842603,220.687123 403.340483,206.640059 C399.938215,200.713836 400.970835,202.513444 397.569643,196.587221 C385.159918,201.696517 369.523256,208.987515 356.174492,214.730763 C346.788407,188.546027 344.224068,170.033307 332.697448,166.384579 C326.736219,164.497789 320.112392,173.768141 322.287348,182.342114 C324.209527,188.464227 336.870953,219.182427 340.758337,228.406497 C340.899246,228.742309 341.041232,229.061977 341.182141,229.370881 L341.183217,229.375186 C342.719239,233.459824 345.309394,237.595049 352.719518,235.435949" id="Fill-47" fill="#FFCC5E" mask="url(#mask-6)"></path>
                    <path d="M220.17038,382.772661 C220.263961,382.748982 220.573747,383.009452 221.001854,383.432446 C224.585906,386.973542 228.512013,387.037045 233.426639,388.208082 L233.527749,393.680098 C233.527749,393.680098 234.598017,398.828141 238.356323,404.980391 C242.114629,411.132642 249.853901,419.041448 245.652428,418.821879 C244.392847,418.756223 242.728823,418.200841 241.017471,417.457104 C236.490078,415.487436 232.423061,412.603973 228.937969,409.119922 L213.874626,395.766008 C212.958175,394.900646 209.647338,392.678043 214.954574,387.726967 L220.17038,382.772661 Z" id="Fill-48" fill="#28273F" mask="url(#mask-6)"></path>
                    <path d="M337.370591,319.498121 L350.000823,321.423659 L350.000823,326.146556 C350.000823,328.576888 350.730111,330.952329 352.09403,332.962896 L354.769161,336.907613 C354.769161,336.907613 365.500878,338.031292 363.612044,339.921311 C362.485843,341.048219 359.753703,341.865147 356.893561,342.438826 C351.704646,343.479628 346.341476,341.791957 342.589624,338.056047 L333.553124,329.061233 C332.614085,328.126986 332.475327,326.655656 333.223976,325.56319 L337.370591,319.498121 Z" id="Fill-49" fill="#28273F" mask="url(#mask-6)"></path>
                </g>
            </g>
        </g>
    </g>
</svg>